<mxfile host="app.diagrams.net" modified="2020-10-27T18:06:03.172Z" agent="5.0 (Windows)" etag="lL2uOnq7dIsDeeEu5Fkl" version="13.8.5" type="github">
  <diagram id="dYi3LoX2D-u_dekNeybU" name="Page-1">
    <mxGraphModel dx="1422" dy="763" grid="1" gridSize="10" guides="1" tooltips="1" connect="1" arrows="1" fold="1" page="1" pageScale="1" pageWidth="827" pageHeight="1169" math="0" shadow="0">
      <root>
        <mxCell id="0" />
        <mxCell id="1" parent="0" />
        <mxCell id="12CVPQTj4qh7yBTBn0yW-1" value="mangez dla marde" style="text;html=1;align=center;verticalAlign=middle;resizable=0;points=[];autosize=1;" parent="1" vertex="1">
          <mxGeometry x="120" y="55" width="120" height="20" as="geometry" />
        </mxCell>
        <mxCell id="12CVPQTj4qh7yBTBn0yW-3" value="TEST" style="whiteSpace=wrap;html=1;" vertex="1" parent="1">
          <mxGeometry x="240" y="200" width="120" height="60" as="geometry" />
        </mxCell>
      </root>
    </mxGraphModel>
  </diagram>
</mxfile>
